<?xml version="1.0" encoding="UTF-8" standalone="no"?>
<!-- Created with Inkscape (http://www.inkscape.org/) -->

<svg
   xmlns:dc="http://purl.org/dc/elements/1.1/"
   xmlns:cc="http://creativecommons.org/ns#"
   xmlns:rdf="http://www.w3.org/1999/02/22-rdf-syntax-ns#"
   xmlns:svg="http://www.w3.org/2000/svg"
   xmlns="http://www.w3.org/2000/svg"
   xmlns:sodipodi="http://sodipodi.sourceforge.net/DTD/sodipodi-0.dtd"
   xmlns:inkscape="http://www.inkscape.org/namespaces/inkscape"
   width="650"
   height="400"
   id="svg10302"
   version="1.1"
   inkscape:version="0.48.4 r9939"
   sodipodi:docname="debugger-compartment.svg"
   viewBox="0 0 650 400">
  <defs
     id="defs10304">
    <marker
       inkscape:stockid="DotS"
       orient="auto"
       refY="0"
       refX="0"
       id="DotS"
       style="overflow:visible">
      <path
         inkscape:connector-curvature="0"
         id="path3941"
         d="m -2.5,-1 c 0,2.76 -2.24,5 -5,5 -2.76,0 -5,-2.24 -5,-5 0,-2.76 2.24,-5 5,-5 2.76,0 5,2.24 5,5 z"
         style="fill-rule:evenodd;stroke:#000000;stroke-width:1pt;marker-start:none;marker-end:none"
         transform="matrix(0.2,0,0,0.2,1.48,0.2)" />
    </marker>
    <marker
       inkscape:stockid="Arrow1Send"
       orient="auto"
       refY="0"
       refX="0"
       id="Arrow1Send"
       style="overflow:visible">
      <path
         inkscape:connector-curvature="0"
         id="path3888"
         d="M 0,0 5,-5 -12.5,0 5,5 0,0 z"
         style="fill-rule:evenodd;stroke:#000000;stroke-width:1pt;marker-start:none"
         transform="matrix(-0.2,0,0,-0.2,-1.2,0)" />
    </marker>
    <marker
       inkscape:stockid="DotS"
       orient="auto"
       refY="0"
       refX="0"
       id="DotS-0"
       style="overflow:visible">
      <path
         inkscape:connector-curvature="0"
         id="path3941-3"
         d="m -2.5,-1 c 0,2.76 -2.24,5 -5,5 -2.76,0 -5,-2.24 -5,-5 0,-2.76 2.24,-5 5,-5 2.76,0 5,2.24 5,5 z"
         style="fill-rule:evenodd;stroke:#000000;stroke-width:1pt;marker-start:none;marker-end:none"
         transform="matrix(0.2,0,0,0.2,1.48,0.2)" />
    </marker>
    <marker
       inkscape:stockid="Arrow1Send"
       orient="auto"
       refY="0"
       refX="0"
       id="Arrow1Send-4"
       style="overflow:visible">
      <path
         inkscape:connector-curvature="0"
         id="path3888-2"
         d="M 0,0 5,-5 -12.5,0 5,5 0,0 z"
         style="fill-rule:evenodd;stroke:#000000;stroke-width:1pt;marker-start:none"
         transform="matrix(-0.2,0,0,-0.2,-1.2,0)" />
    </marker>
    <marker
       inkscape:stockid="DotS"
       orient="auto"
       refY="0"
       refX="0"
       id="DotS-6"
       style="overflow:visible">
      <path
         inkscape:connector-curvature="0"
         id="path3941-6"
         d="m -2.5,-1 c 0,2.76 -2.24,5 -5,5 -2.76,0 -5,-2.24 -5,-5 0,-2.76 2.24,-5 5,-5 2.76,0 5,2.24 5,5 z"
         style="fill-rule:evenodd;stroke:#000000;stroke-width:1pt;marker-start:none;marker-end:none"
         transform="matrix(0.2,0,0,0.2,1.48,0.2)" />
    </marker>
    <marker
       inkscape:stockid="Arrow1Send"
       orient="auto"
       refY="0"
       refX="0"
       id="Arrow1Send-7"
       style="overflow:visible">
      <path
         inkscape:connector-curvature="0"
         id="path3888-3"
         d="M 0,0 5,-5 -12.5,0 5,5 0,0 z"
         style="fill-rule:evenodd;stroke:#000000;stroke-width:1pt;marker-start:none"
         transform="matrix(-0.2,0,0,-0.2,-1.2,0)" />
    </marker>
    <marker
       inkscape:stockid="DotS"
       orient="auto"
       refY="0"
       refX="0"
       id="DotS-1"
       style="overflow:visible">
      <path
         inkscape:connector-curvature="0"
         id="path3941-63"
         d="m -2.5,-1 c 0,2.76 -2.24,5 -5,5 -2.76,0 -5,-2.24 -5,-5 0,-2.76 2.24,-5 5,-5 2.76,0 5,2.24 5,5 z"
         style="fill-rule:evenodd;stroke:#000000;stroke-width:1pt;marker-start:none;marker-end:none"
         transform="matrix(0.2,0,0,0.2,1.48,0.2)" />
    </marker>
    <marker
       inkscape:stockid="Arrow1Send"
       orient="auto"
       refY="0"
       refX="0"
       id="Arrow1Send-8"
       style="overflow:visible">
      <path
         inkscape:connector-curvature="0"
         id="path3888-6"
         d="M 0,0 5,-5 -12.5,0 5,5 0,0 z"
         style="fill-rule:evenodd;stroke:#000000;stroke-width:1pt;marker-start:none"
         transform="matrix(-0.2,0,0,-0.2,-1.2,0)" />
    </marker>
    <marker
       inkscape:stockid="DotS"
       orient="auto"
       refY="0"
       refX="0"
       id="DotS-1-7"
       style="overflow:visible">
      <path
         inkscape:connector-curvature="0"
         id="path3941-63-9"
         d="m -2.5,-1 c 0,2.76 -2.24,5 -5,5 -2.76,0 -5,-2.24 -5,-5 0,-2.76 2.24,-5 5,-5 2.76,0 5,2.24 5,5 z"
         style="fill-rule:evenodd;stroke:#000000;stroke-width:1pt;marker-start:none;marker-end:none"
         transform="matrix(0.2,0,0,0.2,1.48,0.2)" />
    </marker>
    <marker
       inkscape:stockid="Arrow1Send"
       orient="auto"
       refY="0"
       refX="0"
       id="Arrow1Send-8-4"
       style="overflow:visible">
      <path
         inkscape:connector-curvature="0"
         id="path3888-6-4"
         d="M 0,0 5,-5 -12.5,0 5,5 0,0 z"
         style="fill-rule:evenodd;stroke:#000000;stroke-width:1pt;marker-start:none"
         transform="matrix(-0.2,0,0,-0.2,-1.2,0)" />
    </marker>
    <marker
       inkscape:stockid="DotS"
       orient="auto"
       refY="0"
       refX="0"
       id="DotS-4"
       style="overflow:visible">
      <path
         inkscape:connector-curvature="0"
         id="path3941-4"
         d="m -2.5,-1 c 0,2.76 -2.24,5 -5,5 -2.76,0 -5,-2.24 -5,-5 0,-2.76 2.24,-5 5,-5 2.76,0 5,2.24 5,5 z"
         style="fill-rule:evenodd;stroke:#000000;stroke-width:1pt;marker-start:none;marker-end:none"
         transform="matrix(0.2,0,0,0.2,1.48,0.2)" />
    </marker>
    <marker
       inkscape:stockid="Arrow1Send"
       orient="auto"
       refY="0"
       refX="0"
       id="Arrow1Send-79"
       style="overflow:visible">
      <path
         inkscape:connector-curvature="0"
         id="path3888-8"
         d="M 0,0 5,-5 -12.5,0 5,5 0,0 z"
         style="fill-rule:evenodd;stroke:#000000;stroke-width:1pt;marker-start:none"
         transform="matrix(-0.2,0,0,-0.2,-1.2,0)" />
    </marker>
    <marker
       inkscape:stockid="DotS"
       orient="auto"
       refY="0"
       refX="0"
       id="DotS-11"
       style="overflow:visible">
      <path
         inkscape:connector-curvature="0"
         id="path3941-9"
         d="m -2.5,-1 c 0,2.76 -2.24,5 -5,5 -2.76,0 -5,-2.24 -5,-5 0,-2.76 2.24,-5 5,-5 2.76,0 5,2.24 5,5 z"
         style="fill-rule:evenodd;stroke:#000000;stroke-width:1pt;marker-start:none;marker-end:none"
         transform="matrix(0.2,0,0,0.2,1.48,0.2)" />
    </marker>
    <marker
       inkscape:stockid="Arrow1Send"
       orient="auto"
       refY="0"
       refX="0"
       id="Arrow1Send-0"
       style="overflow:visible">
      <path
         inkscape:connector-curvature="0"
         id="path3888-0"
         d="M 0,0 5,-5 -12.5,0 5,5 0,0 z"
         style="fill-rule:evenodd;stroke:#000000;stroke-width:1pt;marker-start:none"
         transform="matrix(-0.2,0,0,-0.2,-1.2,0)" />
    </marker>
    <marker
       inkscape:stockid="DotS"
       orient="auto"
       refY="0"
       refX="0"
       id="DotS-2"
       style="overflow:visible">
      <path
         inkscape:connector-curvature="0"
         id="path3941-96"
         d="m -2.5,-1 c 0,2.76 -2.24,5 -5,5 -2.76,0 -5,-2.24 -5,-5 0,-2.76 2.24,-5 5,-5 2.76,0 5,2.24 5,5 z"
         style="fill-rule:evenodd;stroke:#000000;stroke-width:1pt;marker-start:none;marker-end:none"
         transform="matrix(0.2,0,0,0.2,1.48,0.2)" />
    </marker>
    <marker
       inkscape:stockid="Arrow1Send"
       orient="auto"
       refY="0"
       refX="0"
       id="Arrow1Send-2"
       style="overflow:visible">
      <path
         inkscape:connector-curvature="0"
         id="path3888-4"
         d="M 0,0 5,-5 -12.5,0 5,5 0,0 z"
         style="fill-rule:evenodd;stroke:#000000;stroke-width:1pt;marker-start:none"
         transform="matrix(-0.2,0,0,-0.2,-1.2,0)" />
    </marker>
    <marker
       inkscape:stockid="DotS"
       orient="auto"
       refY="0"
       refX="0"
       id="DotS-1-72"
       style="overflow:visible">
      <path
         inkscape:connector-curvature="0"
         id="path3941-63-1"
         d="m -2.5,-1 c 0,2.76 -2.24,5 -5,5 -2.76,0 -5,-2.24 -5,-5 0,-2.76 2.24,-5 5,-5 2.76,0 5,2.24 5,5 z"
         style="fill-rule:evenodd;stroke:#000000;stroke-width:1pt;marker-start:none;marker-end:none"
         transform="matrix(0.2,0,0,0.2,1.48,0.2)" />
    </marker>
    <marker
       inkscape:stockid="Arrow1Send"
       orient="auto"
       refY="0"
       refX="0"
       id="Arrow1Send-8-8"
       style="overflow:visible">
      <path
         inkscape:connector-curvature="0"
         id="path3888-6-8"
         d="M 0,0 5,-5 -12.5,0 5,5 0,0 z"
         style="fill-rule:evenodd;stroke:#000000;stroke-width:1pt;marker-start:none"
         transform="matrix(-0.2,0,0,-0.2,-1.2,0)" />
    </marker>
    <marker
       inkscape:stockid="DotS"
       orient="auto"
       refY="0"
       refX="0"
       id="DotS-1-5"
       style="overflow:visible">
      <path
         inkscape:connector-curvature="0"
         id="path3941-63-5"
         d="m -2.5,-1 c 0,2.76 -2.24,5 -5,5 -2.76,0 -5,-2.24 -5,-5 0,-2.76 2.24,-5 5,-5 2.76,0 5,2.24 5,5 z"
         style="fill-rule:evenodd;stroke:#000000;stroke-width:1pt;marker-start:none;marker-end:none"
         transform="matrix(0.2,0,0,0.2,1.48,0.2)" />
    </marker>
    <marker
       inkscape:stockid="Arrow1Send"
       orient="auto"
       refY="0"
       refX="0"
       id="Arrow1Send-8-6"
       style="overflow:visible">
      <path
         inkscape:connector-curvature="0"
         id="path3888-6-1"
         d="M 0,0 5,-5 -12.5,0 5,5 0,0 z"
         style="fill-rule:evenodd;stroke:#000000;stroke-width:1pt;marker-start:none"
         transform="matrix(-0.2,0,0,-0.2,-1.2,0)" />
    </marker>
    <marker
       inkscape:stockid="DotS"
       orient="auto"
       refY="0"
       refX="0"
       id="marker18373"
       style="overflow:visible">
      <path
         inkscape:connector-curvature="0"
         id="path18375"
         d="m -2.5,-1 c 0,2.76 -2.24,5 -5,5 -2.76,0 -5,-2.24 -5,-5 0,-2.76 2.24,-5 5,-5 2.76,0 5,2.24 5,5 z"
         style="fill-rule:evenodd;stroke:#000000;stroke-width:1pt;marker-start:none;marker-end:none"
         transform="matrix(0.2,0,0,0.2,1.48,0.2)" />
    </marker>
    <marker
       inkscape:stockid="Arrow1Send"
       orient="auto"
       refY="0"
       refX="0"
       id="marker18377"
       style="overflow:visible">
      <path
         inkscape:connector-curvature="0"
         id="path18379"
         d="M 0,0 5,-5 -12.5,0 5,5 0,0 z"
         style="fill-rule:evenodd;stroke:#000000;stroke-width:1pt;marker-start:none"
         transform="matrix(-0.2,0,0,-0.2,-1.2,0)" />
    </marker>
    <marker
       inkscape:stockid="DotS"
       orient="auto"
       refY="0"
       refX="0"
       id="DotS-3"
       style="overflow:visible">
      <path
         inkscape:connector-curvature="0"
         id="path3941-8"
         d="m -2.5,-1 c 0,2.76 -2.24,5 -5,5 -2.76,0 -5,-2.24 -5,-5 0,-2.76 2.24,-5 5,-5 2.76,0 5,2.24 5,5 z"
         style="fill-rule:evenodd;stroke:#000000;stroke-width:1pt;marker-start:none;marker-end:none"
         transform="matrix(0.2,0,0,0.2,1.48,0.2)" />
    </marker>
    <marker
       inkscape:stockid="Arrow1Send"
       orient="auto"
       refY="0"
       refX="0"
       id="Arrow1Send-6"
       style="overflow:visible">
      <path
         inkscape:connector-curvature="0"
         id="path3888-7"
         d="M 0,0 5,-5 -12.5,0 5,5 0,0 z"
         style="fill-rule:evenodd;stroke:#000000;stroke-width:1pt;marker-start:none"
         transform="matrix(-0.2,0,0,-0.2,-1.2,0)" />
    </marker>
    <marker
       inkscape:stockid="DotS"
       orient="auto"
       refY="0"
       refX="0"
       id="marker5482"
       style="overflow:visible">
      <path
         inkscape:connector-curvature="0"
         id="path5484"
         d="m -2.5,-1 c 0,2.76 -2.24,5 -5,5 -2.76,0 -5,-2.24 -5,-5 0,-2.76 2.24,-5 5,-5 2.76,0 5,2.24 5,5 z"
         style="fill-rule:evenodd;stroke:#000000;stroke-width:1pt;marker-start:none;marker-end:none"
         transform="matrix(0.2,0,0,0.2,1.48,0.2)" />
    </marker>
    <marker
       inkscape:stockid="Arrow1Send"
       orient="auto"
       refY="0"
       refX="0"
       id="marker5486"
       style="overflow:visible">
      <path
         inkscape:connector-curvature="0"
         id="path5488"
         d="M 0,0 5,-5 -12.5,0 5,5 0,0 z"
         style="fill-rule:evenodd;stroke:#000000;stroke-width:1pt;marker-start:none"
         transform="matrix(-0.2,0,0,-0.2,-1.2,0)" />
    </marker>
    <marker
       inkscape:stockid="DotS"
       orient="auto"
       refY="0"
       refX="0"
       id="marker5490"
       style="overflow:visible">
      <path
         inkscape:connector-curvature="0"
         id="path5492"
         d="m -2.5,-1 c 0,2.76 -2.24,5 -5,5 -2.76,0 -5,-2.24 -5,-5 0,-2.76 2.24,-5 5,-5 2.76,0 5,2.24 5,5 z"
         style="fill-rule:evenodd;stroke:#000000;stroke-width:1pt;marker-start:none;marker-end:none"
         transform="matrix(0.2,0,0,0.2,1.48,0.2)" />
    </marker>
    <marker
       inkscape:stockid="Arrow1Send"
       orient="auto"
       refY="0"
       refX="0"
       id="marker5494"
       style="overflow:visible">
      <path
         inkscape:connector-curvature="0"
         id="path5496"
         d="M 0,0 5,-5 -12.5,0 5,5 0,0 z"
         style="fill-rule:evenodd;stroke:#000000;stroke-width:1pt;marker-start:none"
         transform="matrix(-0.2,0,0,-0.2,-1.2,0)" />
    </marker>
    <marker
       inkscape:stockid="DotS"
       orient="auto"
       refY="0"
       refX="0"
       id="DotS-1-3"
       style="overflow:visible">
      <path
         inkscape:connector-curvature="0"
         id="path3941-63-6"
         d="m -2.5,-1 c 0,2.76 -2.24,5 -5,5 -2.76,0 -5,-2.24 -5,-5 0,-2.76 2.24,-5 5,-5 2.76,0 5,2.24 5,5 z"
         style="fill-rule:evenodd;stroke:#000000;stroke-width:1pt;marker-start:none;marker-end:none"
         transform="matrix(0.2,0,0,0.2,1.48,0.2)" />
    </marker>
    <marker
       inkscape:stockid="Arrow1Send"
       orient="auto"
       refY="0"
       refX="0"
       id="Arrow1Send-8-0"
       style="overflow:visible">
      <path
         inkscape:connector-curvature="0"
         id="path3888-6-2"
         d="M 0,0 5,-5 -12.5,0 5,5 0,0 z"
         style="fill-rule:evenodd;stroke:#000000;stroke-width:1pt;marker-start:none"
         transform="matrix(-0.2,0,0,-0.2,-1.2,0)" />
    </marker>
    <marker
       inkscape:stockid="DotS"
       orient="auto"
       refY="0"
       refX="0"
       id="marker5502"
       style="overflow:visible">
      <path
         inkscape:connector-curvature="0"
         id="path5504"
         d="m -2.5,-1 c 0,2.76 -2.24,5 -5,5 -2.76,0 -5,-2.24 -5,-5 0,-2.76 2.24,-5 5,-5 2.76,0 5,2.24 5,5 z"
         style="fill-rule:evenodd;stroke:#000000;stroke-width:1pt;marker-start:none;marker-end:none"
         transform="matrix(0.2,0,0,0.2,1.48,0.2)" />
    </marker>
    <marker
       inkscape:stockid="Arrow1Send"
       orient="auto"
       refY="0"
       refX="0"
       id="marker5506"
       style="overflow:visible">
      <path
         inkscape:connector-curvature="0"
         id="path5508"
         d="M 0,0 5,-5 -12.5,0 5,5 0,0 z"
         style="fill-rule:evenodd;stroke:#000000;stroke-width:1pt;marker-start:none"
         transform="matrix(-0.2,0,0,-0.2,-1.2,0)" />
    </marker>
    <marker
       inkscape:stockid="DotS"
       orient="auto"
       refY="0"
       refX="0"
       id="marker5510"
       style="overflow:visible">
      <path
         inkscape:connector-curvature="0"
         id="path5512"
         d="m -2.5,-1 c 0,2.76 -2.24,5 -5,5 -2.76,0 -5,-2.24 -5,-5 0,-2.76 2.24,-5 5,-5 2.76,0 5,2.24 5,5 z"
         style="fill-rule:evenodd;stroke:#000000;stroke-width:1pt;marker-start:none;marker-end:none"
         transform="matrix(0.2,0,0,0.2,1.48,0.2)" />
    </marker>
    <marker
       inkscape:stockid="Arrow1Send"
       orient="auto"
       refY="0"
       refX="0"
       id="marker5514"
       style="overflow:visible">
      <path
         inkscape:connector-curvature="0"
         id="path5516"
         d="M 0,0 5,-5 -12.5,0 5,5 0,0 z"
         style="fill-rule:evenodd;stroke:#000000;stroke-width:1pt;marker-start:none"
         transform="matrix(-0.2,0,0,-0.2,-1.2,0)" />
    </marker>
  </defs>
  <sodipodi:namedview
     id="base"
     pagecolor="#ffffff"
     bordercolor="#666666"
     borderopacity="1.0"
     inkscape:pageopacity="0.0"
     inkscape:pageshadow="2"
     inkscape:zoom="1.6369231"
     inkscape:cx="323.7782"
     inkscape:cy="200"
     inkscape:document-units="px"
     inkscape:current-layer="layer2"
     showgrid="false"
     showguides="true"
     inkscape:guide-bbox="true"
     inkscape:window-width="1600"
     inkscape:window-height="841"
     inkscape:window-x="0"
     inkscape:window-y="27"
     inkscape:window-maximized="1" />
  <metadata
     id="metadata10307">
    <rdf:RDF>
      <cc:Work
         rdf:about="">
        <dc:format>image/svg+xml</dc:format>
        <dc:type
           rdf:resource="http://purl.org/dc/dcmitype/StillImage" />
        <dc:title></dc:title>
      </cc:Work>
    </rdf:RDF>
  </metadata>
  <g
     inkscape:groupmode="layer"
     id="layer2"
     inkscape:label="shadows"
     style="display:inline">
    <rect
       style="fill:#c0c0c0;fill-opacity:1;stroke:#000000;stroke-width:1.99999988000000006;stroke-miterlimit:4;stroke-opacity:1;stroke-dasharray:4.00000002999999982, 4.00000002999999982;stroke-dashoffset:0;display:inline"
       id="rect3755-3-0-6-1-8-9"
       width="90.69725"
       height="68.716171"
       x="350.71667"
       y="261.08624"
       ry="4.0393105"
       rx="4.0393105" />
    <rect
       style="fill:#969696;fill-opacity:1;stroke:none;display:inline"
       id="rect3755-5-68"
       width="56.738441"
       height="35.520798"
       x="371.39905"
       y="136.41815"
       ry="11.065418"
       rx="11.065418" />
    <rect
       style="fill:#969696;fill-opacity:1;stroke:none;display:inline"
       id="rect3755-3-0-6-1-8"
       width="84.405731"
       height="39.054001"
       x="453.39093"
       y="284.20627"
       ry="4.0393105"
       rx="4.0393105" />
    <rect
       style="fill:#969696;fill-opacity:1;stroke:none;display:inline"
       id="rect3755-3-0-6-1-3-43"
       width="70.849419"
       height="39.054001"
       x="466.94727"
       y="242.93936"
       ry="4.0393105"
       rx="4.0393105" />
    <rect
       style="fill:#969696;fill-opacity:1;stroke:none;display:inline"
       id="rect3755-5-6-1"
       width="56.738441"
       height="35.520798"
       x="446.09998"
       y="136.41815"
       ry="11.065418"
       rx="11.065418" />
    <rect
       style="fill:#969696;fill-opacity:1;stroke:none;display:inline"
       id="rect3755-5-2-4"
       width="64.807678"
       height="39.053989"
       x="371.76477"
       y="284.20627"
       ry="11.065418"
       rx="11.065418" />
    <rect
       style="fill:#969696;fill-opacity:1;stroke:none;display:inline"
       id="rect3755-1-5-9"
       width="115.3438"
       height="63.454777"
       x="446.50525"
       y="41.775631"
       ry="6.1249413"
       rx="6.1249394" />
    <rect
       style="fill:#969696;fill-opacity:1;stroke:#e6e4dd;stroke-width:2.92859483000000020;stroke-miterlimit:4;stroke-opacity:1;stroke-dasharray:none;display:inline"
       id="rect3755-1-5-1-7-2"
       width="88.50177"
       height="15.645587"
       x="495.09955"
       y="58.472103"
       ry="6.1249413"
       rx="6.1249399" />
    <rect
       style="fill:#969696;fill-opacity:1;stroke:none;display:inline"
       id="rect3755-3-0-6-1-1-0"
       width="92.185806"
       height="39.054001"
       x="555.72589"
       y="284.20645"
       ry="4.0393105"
       rx="4.0393105" />
    <rect
       style="fill:#969696;fill-opacity:1;stroke:none;display:inline"
       id="rect3755-3-0-6-1-3-4-6"
       width="42.776833"
       height="39.054001"
       x="495.01984"
       y="201.67471"
       ry="4.0393105"
       rx="4.0393105" />
    <rect
       style="fill:#969696;fill-opacity:1;stroke:none;display:inline"
       id="rect3755-3-0-6-1-1-5-8"
       width="92.185806"
       height="39.054001"
       x="555.72589"
       y="242.93936"
       ry="4.0393105"
       rx="4.0393105" />
    <text
       xml:space="preserve"
       style="font-size:9.3517065px;font-style:normal;font-weight:normal;line-height:125%;letter-spacing:0px;word-spacing:0px;fill:#000000;fill-opacity:1;stroke:none;display:inline;font-family:Sans"
       x="95.582787"
       y="106.97657"
       id="text10310-6"
       sodipodi:linespacing="125%"
       transform="scale(0.73581941,1.3590291)"><tspan
         sodipodi:role="line"
         id="tspan10312-9"
         x="95.582787"
         y="106.97657" /></text>
    <rect
       style="fill:#83d4ff;fill-opacity:1;stroke:none;display:inline"
       id="rect3755-5"
       width="58.234211"
       height="34.917274"
       x="17.981014"
       y="138.23096"
       ry="11.065418"
       rx="11.065418" />
    <path
       style="fill:none;stroke:#e6e4dd;stroke-width:2.95684338000000002;stroke-linecap:butt;stroke-linejoin:miter;stroke-miterlimit:4;stroke-opacity:1;stroke-dasharray:none;display:inline"
       d="m 17.981008,156.24035 58.76716,0"
       id="path3773-4-3"
       inkscape:connector-curvature="0" />
    <path
       style="fill:none;stroke:#000000;stroke-width:3.44310403;stroke-linecap:butt;stroke-linejoin:miter;stroke-miterlimit:4;stroke-opacity:1;stroke-dasharray:none;marker-start:url(#DotS);marker-end:url(#Arrow1Send);display:inline"
       d="m 64.511818,146.96591 c 0,-37.08003 11.42539,-68.80297 28.82762,-68.80297"
       id="path3868-4"
       inkscape:connector-curvature="0"
       sodipodi:nodetypes="cc" />
    <rect
       style="fill:#ffd257;fill-opacity:1;stroke:none;display:inline"
       id="rect3755-3-0-6-1"
       width="86.630867"
       height="38.390442"
       x="102.13439"
       y="283.50809"
       ry="4.0393105"
       rx="4.0393105" />
    <path
       style="fill:none;stroke:#000000;stroke-width:3.44310403;stroke-linecap:butt;stroke-linejoin:miter;stroke-miterlimit:4;stroke-opacity:1;stroke-dasharray:none;marker-start:url(#DotS);marker-end:url(#Arrow1Send);display:inline"
       d="m 64.511818,163.92176 c 25.18842,0 44.066422,82.23168 44.066422,116.39031"
       id="path3868-4-0"
       inkscape:connector-curvature="0"
       sodipodi:nodetypes="cc" />
    <rect
       style="fill:#ffd257;fill-opacity:1;stroke:none;display:inline"
       id="rect3755-3-0-6-1-3"
       width="72.717178"
       height="38.390442"
       x="116.04809"
       y="242.94235"
       ry="4.0393105"
       rx="4.0393105" />
    <rect
       style="fill:#83d4ff;fill-opacity:1;stroke:none;display:inline"
       id="rect3755-5-6"
       width="58.234211"
       height="34.917274"
       x="94.651207"
       y="138.23096"
       ry="11.065418"
       rx="11.065418" />
    <path
       style="fill:none;stroke:#e6e4dd;stroke-width:2.95684338000000002;stroke-linecap:butt;stroke-linejoin:miter;stroke-miterlimit:4;stroke-opacity:1;stroke-dasharray:none;display:inline"
       d="m 94.651218,156.24036 58.767162,0"
       id="path3773-4-3-4"
       inkscape:connector-curvature="0" />
    <rect
       style="fill:#83d4ff;fill-opacity:1;stroke:none;display:inline"
       id="rect3755-5-2"
       width="66.516167"
       height="38.390427"
       x="18.356365"
       y="283.50809"
       ry="11.065418"
       rx="11.065418" />
    <path
       style="fill:none;stroke:#000000;stroke-width:3;stroke-linecap:butt;stroke-linejoin:miter;stroke-miterlimit:4;stroke-opacity:1;stroke-dasharray:none;marker-start:url(#DotS-1);marker-end:url(#Arrow1Send-8);display:inline"
       d="m 108.54911,302.70331 -22.526932,0"
       id="path11163-2"
       inkscape:connector-curvature="0"
       sodipodi:nodetypes="cc" />
    <rect
       style="fill:#83ff9a;fill-opacity:1;stroke:none;display:inline"
       id="rect3755-1-5"
       width="118.38455"
       height="62.376617"
       x="95.067162"
       y="45.196468"
       ry="6.1249413"
       rx="6.1249394" />
    <rect
       style="fill:#83ff9a;fill-opacity:1;stroke:#e6e4dd;stroke-width:2.92859411000000014;stroke-miterlimit:4;stroke-opacity:1;stroke-dasharray:none;display:inline"
       id="rect3755-1-5-1-7"
       width="90.834885"
       height="15.379755"
       x="144.94257"
       y="61.609249"
       ry="6.1249413"
       rx="6.1249399" />
    <path
       style="fill:none;stroke:#000000;stroke-width:3.44310403;stroke-linecap:butt;stroke-linejoin:miter;stroke-miterlimit:4;stroke-opacity:1;stroke-dasharray:none;marker-start:url(#DotS);marker-end:url(#Arrow1Send);display:inline"
       d="m 143.39291,147.13687 c 80.66996,0 83.14716,-27.12049 77.02862,-67.68397"
       id="path3868-4-4"
       inkscape:connector-curvature="0"
       sodipodi:nodetypes="cc" />
    <text
       xml:space="preserve"
       style="font-size:5.45516157px;font-style:normal;font-weight:normal;line-height:125%;letter-spacing:0px;word-spacing:0px;fill:#000000;fill-opacity:1;stroke:none;display:inline;font-family:Sans"
       x="69.920433"
       y="236.63904"
       id="text3530"
       sodipodi:linespacing="125%"
       transform="scale(0.73581941,1.3590291)"><tspan
         sodipodi:role="line"
         id="tspan3532"
         x="69.920433"
         y="236.63904" /></text>
    <rect
       style="fill:#ff9457;fill-opacity:1;stroke:none;display:inline"
       id="rect3755-3-0-6-1-1"
       width="94.616043"
       height="38.390442"
       x="207.16711"
       y="283.50827"
       ry="4.0393105"
       rx="4.0393105" />
    <rect
       style="fill:#ffd257;fill-opacity:1;stroke:none;display:inline"
       id="rect3755-3-0-6-1-3-4"
       width="43.90453"
       height="38.390442"
       x="144.86075"
       y="202.37881"
       ry="4.0393105"
       rx="4.0393105" />
    <rect
       style="fill:#ff9457;fill-opacity:1;stroke:none;display:inline"
       id="rect3755-3-0-6-1-1-5"
       width="94.616043"
       height="38.390442"
       x="207.16711"
       y="242.94235"
       ry="4.0393105"
       rx="4.0393105" />
    <text
       xml:space="preserve"
       style="font-size:10.58345985px;font-style:normal;font-weight:normal;line-height:125%;letter-spacing:0px;word-spacing:0px;fill:#000000;fill-opacity:1;stroke:none;font-family:Sans"
       x="405.11316"
       y="97.056946"
       id="text6503"
       sodipodi:linespacing="125%"><tspan
         sodipodi:role="line"
         id="tspan6505"
         x="405.11316"
         y="97.056946" /></text>
    <text
       xml:space="preserve"
       style="font-size:5.87970018px;font-style:normal;font-weight:normal;line-height:125%;letter-spacing:0px;word-spacing:0px;fill:#000000;fill-opacity:1;stroke:none;font-family:Sans"
       x="375.32422"
       y="167.03064"
       id="text6507"
       sodipodi:linespacing="125%"><tspan
         sodipodi:role="line"
         id="tspan6509"
         x="375.32422"
         y="167.03064">Debugger.Object</tspan></text>
    <text
       xml:space="preserve"
       style="font-size:5.87970018px;font-style:normal;font-weight:normal;line-height:125%;letter-spacing:0px;word-spacing:0px;fill:#000000;fill-opacity:1;stroke:none;font-family:Sans"
       x="451.07239"
       y="99.774353"
       id="text6511"
       sodipodi:linespacing="125%"><tspan
         sodipodi:role="line"
         id="tspan6513"
         x="451.07239"
         y="99.774353">Debugger.Script</tspan></text>
    <text
       xml:space="preserve"
       style="font-size:5.87970018px;font-style:normal;font-weight:normal;line-height:125%;letter-spacing:0px;word-spacing:0px;fill:#000000;fill-opacity:1;stroke:none;font-family:Sans"
       x="449.0343"
       y="167.03064"
       id="text6515"
       sodipodi:linespacing="125%"><tspan
         sodipodi:role="line"
         id="tspan6517"
         x="449.0343"
         y="167.03064">Debugger.Object</tspan></text>
    <text
       xml:space="preserve"
       style="font-size:5.87970018px;font-style:normal;font-weight:normal;line-height:125%;letter-spacing:0px;word-spacing:0px;fill:#000000;fill-opacity:1;stroke:none;font-family:Sans"
       x="458.20563"
       y="319.88565"
       id="text6519"
       sodipodi:linespacing="125%"><tspan
         sodipodi:role="line"
         id="tspan6521"
         x="458.20563"
         y="319.88565">Debugger.Environment</tspan></text>
    <text
       xml:space="preserve"
       style="font-size:5.87970018px;font-style:normal;font-weight:normal;line-height:125%;letter-spacing:0px;word-spacing:0px;fill:#000000;fill-opacity:1;stroke:none;font-family:Sans"
       x="376.34326"
       y="319.54599"
       id="text6523"
       sodipodi:linespacing="125%"><tspan
         sodipodi:role="line"
         id="tspan6525"
         x="376.34326"
         y="319.54599">Debugger.Object</tspan></text>
    <text
       xml:space="preserve"
       style="font-size:5.87970018px;font-style:normal;font-weight:normal;line-height:125%;letter-spacing:0px;word-spacing:0px;fill:#000000;fill-opacity:1;stroke:none;font-family:Sans"
       x="559.42969"
       y="318.86667"
       id="text6527"
       sodipodi:linespacing="125%"><tspan
         sodipodi:role="line"
         id="tspan6529"
         x="559.42969"
         y="318.86667">Debugger.Frame</tspan></text>
    <text
       xml:space="preserve"
       style="font-size:5.87970018px;font-style:normal;font-weight:normal;line-height:125%;letter-spacing:0px;word-spacing:0px;fill:#000000;fill-opacity:1;stroke:none;font-family:Sans"
       x="360.66772"
       y="272.23157"
       id="text6531"
       sodipodi:linespacing="125%"><tspan
         sodipodi:role="line"
         id="tspan6533"
         x="360.66772"
         y="272.23157">Debugger</tspan></text>
    <text
       xml:space="preserve"
       style="font-size:5.87970018px;font-style:normal;font-weight:normal;line-height:125%;letter-spacing:0px;word-spacing:0px;fill:#000000;fill-opacity:1;stroke:none;display:inline;font-family:Sans"
       x="500.1322"
       y="70.146057"
       id="text6511-2"
       sodipodi:linespacing="125%"><tspan
         sodipodi:role="line"
         id="tspan6513-6"
         x="500.1322"
         y="70.146057">Debugger.Script</tspan></text>
    <path
       style="fill:none;stroke:#000000;stroke-width:3;stroke-linecap:butt;stroke-linejoin:miter;stroke-miterlimit:4;stroke-opacity:1;stroke-dasharray:none;marker-start:url(#DotS-1);marker-end:url(#Arrow1Send-8);display:inline"
       d="m 211.78746,301.862 c -38.35631,0 13.07887,-78.72909 -22.29268,-78.72909"
       id="path11163"
       inkscape:connector-curvature="0"
       sodipodi:nodetypes="cc" />
    <path
       style="fill:none;stroke:#000000;stroke-width:3.44310403;stroke-linecap:butt;stroke-linejoin:miter;stroke-miterlimit:4;stroke-opacity:1;stroke-dasharray:none;marker-start:url(#DotS);marker-end:url(#Arrow1Send);display:inline"
       d="m 143.14659,165.3481 c 0,25.74332 -18.54519,49.22138 -18.54519,74.98757"
       id="path3868-4-0-4-7"
       inkscape:connector-curvature="0"
       sodipodi:nodetypes="cc" />
  </g>
  <g
     inkscape:label="Layer 1"
     inkscape:groupmode="layer"
     id="layer1"
     style="display:inline">
    <text
       xml:space="preserve"
       style="font-size:7.65160275px;font-style:normal;font-weight:normal;line-height:125%;letter-spacing:0px;word-spacing:0px;fill:#000000;fill-opacity:1;stroke:none;font-family:Sans"
       x="81.789177"
       y="690.64038"
       id="text10310"
       sodipodi:linespacing="125%"
       transform="scale(0.89158456,1.1215986)"><tspan
         sodipodi:role="line"
         id="tspan10312"
         x="81.789177"
         y="690.64038" /></text>
    <path
       style="fill:none;stroke:#000000;stroke-width:3;stroke-linecap:butt;stroke-linejoin:miter;stroke-miterlimit:4;stroke-opacity:1;stroke-dasharray:3, 6;stroke-dashoffset:0"
       d="M 325,-3.8068065 325,403.80681"
       id="path21051"
       inkscape:connector-curvature="0" />
    <text
       xml:space="preserve"
       style="font-size:24px;font-style:normal;font-weight:normal;text-align:center;line-height:125%;letter-spacing:0px;word-spacing:0px;text-anchor:middle;fill:#000000;fill-opacity:1;stroke:none;display:inline;font-family:Sans"
       x="161.56862"
       y="26.473169"
       id="text21723"
       sodipodi:linespacing="125%"><tspan
         sodipodi:role="line"
         id="tspan21725"
         x="161.56862"
         y="26.473169">Debuggee compartment</tspan></text>
    <text
       xml:space="preserve"
       style="font-size:24px;font-style:normal;font-weight:normal;text-align:center;line-height:125%;letter-spacing:0px;word-spacing:0px;text-anchor:middle;fill:#000000;fill-opacity:1;stroke:none;display:inline;font-family:Sans"
       x="493.24799"
       y="26.473169"
       id="text21727"
       sodipodi:linespacing="125%"><tspan
         sodipodi:role="line"
         x="493.24799"
         y="26.473169"
         id="tspan6061">Debugger compartment</tspan></text>
  </g>
</svg>
